{"title":"The Carpetbaggers (1964)","uid":6075991,"size":734328197,"categoryP":"video","categoryS":"movies","magnet":"?xt=urn:btih:4cb2185ba623e24e28bf13038b3036eb66b792cd&amp;dn=The+Carpetbaggers+%281964%29&amp;tr=udp%3A%2F%2Ftracker.openbittorrent.com%3A80&amp;tr=udp%3A%2F%2Fopen.demonii.com%3A1337&amp;tr=udp%3A%2F%2Ftracker.coppersurfer.tk%3A6969&amp;tr=udp%3A%2F%2Fexodus.desync.com%3A6969","seeders":0,"leechers":2,"uploader":"tiburon1978","files":4,"time":1293849691,"description":"The Carpetbaggers (1964)\n\nJonas Cord is a disagreeable rich young tycoon on the corporate make, with some subplots about booze, broads and Hollywood in the 1930's.\n\nDirector: Edward Dmytryk\n\nWriters: Harold Robbins (novel), John Michael Hayes\n\nStars:\nGeorge Peppard, Alan Ladd and Robert Cummings \n &lt;a href=&quot;\nhttp://www.imdb.com/title/tt0057917/&quot; rel=&quot;nofollow&quot; target=&quot;_NEW&quot;&gt;\nhttp://www.imdb.com/title/tt0057917/&lt;/a&gt;\n &lt;a href=&quot;\nhttp://bayimg.com/pacNEAadc&quot; rel=&quot;nofollow&quot; target=&quot;_NEW&quot;&gt;\nhttp://bayimg.com/pacNEAadc&lt;/a&gt;\n\n\nGeneral\nComplete name                    : The Carpetbaggers\nFormat                           : AVI\nFormat/Info                      : Audio Video Interleave\nFile size                        : 700 MiB\nDuration                         : 2h 30mn\nOverall bit rate                 : 653 Kbps\nWriting application              : VirtualDubMod 1.5.4.1 (build 2178/release)\nWriting library                  : VirtualDubMod build 2178/release\n\nVideo\nID                               : 0\nFormat                           : MPEG-4 Visual\nFormat profile                   : Advanced Simple@L5\nFormat settings, BVOP            : Yes\nFormat settings, QPel            : No\nFormat settings, GMC             : No warppoints\nFormat settings, Matrix          : Custom\nCodec ID                         : XVID\nCodec ID/Hint                    : XviD\nDuration                         : 2h 30mn\nBit rate                         : 533 Kbps\nWidth                            : 608 pixels\nHeight                           : 352 pixels\nDisplay aspect ratio             : 16:9\nFrame rate                       : 23.976 fps\nColor space                      : YUV\nChroma subsampling               : 4:2:0\nBit depth                        : 8 bits\nScan type                        : Progressive\nCompression mode                 : Lossy\nBits/(Pixel*Frame)               : 0.104\nStream size                      : 572 MiB (82%)\nWriting library                  : XviD 1.2.1 (UTC 2008-12-04)\n\nAudio\nID                               : 1\nFormat                           : MPEG Audio\nFormat version                   : Version 1\nFormat profile                   : Layer 3\nMode                             : Joint stereo\nMode extension                   : MS Stereo\nCodec ID                         : 55\nCodec ID/Hint                    : MP3\nDuration                         : 2h 30mn\nBit rate mode                    : Variable\nBit rate                         : 107 Kbps\nNominal bit rate                 : 128 Kbps\nChannel(s)                       : 2 channels\nSampling rate                    : 48.0 KHz\nCompression mode                 : Lossy\nStream size                      : 115 MiB (16%)\nAlignment                        : Aligned on interleaves\nInterleave, duration             : 24 ms (0.58 video frame)\nInterleave, preload duration     : 172 ms\nWriting library                  : LAME3.98r\nEncoding settings                : -m j -V 4 -q 2 -lowpass 17 --abr 128\n","torrent":{"xt":"urn:btih:4cb2185ba623e24e28bf13038b3036eb66b792cd","amp;dn":"The+Carpetbaggers+%281964%29","amp;tr":["udp%3A%2F%2Ftracker.openbittorrent.com%3A80","udp%3A%2F%2Fopen.demonii.com%3A1337","udp%3A%2F%2Ftracker.coppersurfer.tk%3A6969","udp%3A%2F%2Fexodus.desync.com%3A6969"],"infoHash":"4cb2185ba623e24e28bf13038b3036eb66b792cd","infoHashBuffer":{"type":"Buffer","data":[76,178,24,91,166,35,226,78,40,191,19,3,139,48,54,235,102,183,146,205]},"announce":[],"urlList":[]}}